# xmcd CD database file
#
# Track frame offsets:
#	150
#	20512
#	41610
#	67077
#	88730
#	113565
#	134762
#	154590
#	175477
#	201375
#	227640
#	249715
#	264863
#	286278
#	307833
#
# Disc length: 4345 seconds
#
# Revision: 1
# Processed by: cddbd v1.5.2PL0 Copyright (c) Steve Scherf et al.
# Submitted via: CDex 1.70beta2
#
DISCID=d310f70f
DTITLE=柯以敏 - 拜訪[全紀錄] 
DYEAR=1998
DGENRE=Pop
TTITLE0=斷了線
TTITLE1=兩難
TTITLE2=天亮以前
TTITLE3=河流
TTITLE4=思念綿綿
TTITLE5=鄰居的耳朵
TTITLE6=風
TTITLE7=怕你不了解
TTITLE8=拜訪
TTITLE9=走出愛情 
TTITLE10=愛我
TTITLE11=愛情開了我們一個玩笑
TTITLE12=她在睡前哭泣
TTITLE13=我用生命愛你
TTITLE14=回家
EXTD=YEAR: 1998
EXTT0=
EXTT1=
EXTT2=
EXTT3=
EXTT4=
EXTT5=
EXTT6=
EXTT7=
EXTT8=
EXTT9=
EXTT10=
EXTT11=
EXTT12=
EXTT13=
EXTT14=
PLAYORDER=
